<svg width="512" height="512" viewBox="0 0 512 512" fill="none" xmlns="http://www.w3.org/2000/svg">
  <defs>
    <linearGradient id="bitcoin-grad-512" x1="0%" y1="0%" x2="100%" y2="100%">
      <stop offset="0%" style="stop-color:#F7931A"/>
      <stop offset="100%" style="stop-color:#EA580C"/>
    </linearGradient>
  </defs>
  <!-- Background circle -->
  <circle cx="256" cy="256" r="256" fill="url(#bitcoin-grad-512)"/>
  <!-- Bitcoin symbol - scaled 16x from 32px version -->
  <path d="M360 227.2c4.8-32-19.2-49.6-52.8-60.8l11.2-43.2-25.6-6.4-11.2 43.2c-6.4-1.6-12.8-3.2-20.8-4.8l11.2-43.2-25.6-6.4-11.2 43.2c-6.4-1.6-11.2-3.2-16-3.2l-35.2-9.6-6.4 27.2s19.2 4.8 19.2 4.8c11.2 3.2 12.8 9.6 12.8 16l-12.8 51.2c0 0 1.6 0 3.2 1.6-1.6 0-1.6 0-3.2 0l-17.6 72c-1.6 3.2-4.8 8-12.8 6.4 0 0-19.2-4.8-19.2-4.8l-12.8 28.8 33.6 8c6.4 1.6 12.8 3.2 19.2 4.8l-11.2 44.8 25.6 6.4 11.2-43.2c6.4 1.6 14.4 3.2 20.8 4.8l-11.2 43.2 25.6 6.4 11.2-44.8c44.8 8 78.4 4.8 92.8-35.2 11.2-32-1.6-51.2-24-62.4 17.6-4.8 30.4-16 33.6-38.4zm-60.8 84.8c-8 32-62.4 14.4-80 11.2l14.4-57.6c17.6 4.8 75.2 12.8 65.6 46.4zm8-86.4c-8 28.8-52.8 14.4-67.2 11.2l12.8-51.2c14.4 3.2 62.4 11.2 54.4 40z" fill="white"/>
</svg>
