<svg width="192" height="192" viewBox="0 0 192 192" fill="none" xmlns="http://www.w3.org/2000/svg">
  <defs>
    <linearGradient id="bitcoin-grad-192" x1="0%" y1="0%" x2="100%" y2="100%">
      <stop offset="0%" style="stop-color:#F7931A"/>
      <stop offset="100%" style="stop-color:#EA580C"/>
    </linearGradient>
  </defs>
  <!-- Background circle -->
  <circle cx="96" cy="96" r="96" fill="url(#bitcoin-grad-192)"/>
  <!-- Bitcoin symbol - scaled 6x from 32px version -->
  <path d="M135 85.2c1.8-12-7.2-18.6-19.8-22.8l4.2-16.2-9.6-2.4-4.2 16.2c-2.4-.6-4.8-1.2-7.8-1.8l4.2-16.2-9.6-2.4-4.2 16.2c-2.4-.6-4.2-1.2-6-1.2l-13.2-3.6-2.4 10.2s7.2 1.8 7.2 1.8c4.2 1.2 4.8 3.6 4.8 6l-4.8 19.2c0 0 .6 0 1.2.6-.6 0-.6 0-1.2 0l-6.6 27c-.6 1.2-1.8 3-4.8 2.4 0 0-7.2-1.8-7.2-1.8l-4.8 10.8 12.6 3c2.4.6 4.8 1.2 7.2 1.8l-4.2 16.8 9.6 2.4 4.2-16.2c2.4.6 5.4 1.2 7.8 1.8l-4.2 16.2 9.6 2.4 4.2-16.8c16.8 3 29.4 1.8 34.8-13.2 4.2-12-.6-19.2-9-23.4 6.6-1.8 11.4-6 12.6-14.4zm-22.8 31.8c-3 12-23.4 5.4-30 4.2l5.4-21.6c6.6 1.8 28.2 4.8 24.6 17.4zm3-32.4c-3 10.8-19.8 5.4-25.2 4.2l4.8-19.2c5.4 1.2 23.4 4.2 20.4 15z" fill="white"/>
</svg>
