<svg width="180" height="180" viewBox="0 0 180 180" fill="none" xmlns="http://www.w3.org/2000/svg">
  <defs>
    <linearGradient id="bitcoin-grad-apple" x1="0%" y1="0%" x2="100%" y2="100%">
      <stop offset="0%" style="stop-color:#F7931A"/>
      <stop offset="100%" style="stop-color:#EA580C"/>
    </linearGradient>
  </defs>
  <!-- Rounded rectangle background for iOS -->
  <rect width="180" height="180" rx="40" fill="url(#bitcoin-grad-apple)"/>
  <!-- Bitcoin symbol - centered and scaled -->
  <path d="M126.5 79.7c1.7-11.2-6.7-17.4-18.5-21.3l3.9-15.1-9-2.2-3.9 15.1c-2.2-.6-4.5-1.1-7.3-1.7l3.9-15.1-9-2.2-3.9 15.1c-2.2-.6-3.9-1.1-5.6-1.1l-12.4-3.4-2.2 9.5s6.7 1.7 6.7 1.7c3.9 1.1 4.5 3.4 4.5 5.6l-4.5 17.9c0 0 .6 0 1.1.6-.6 0-.6 0-1.1 0l-6.2 25.2c-.6 1.1-1.7 2.8-4.5 2.2 0 0-6.7-1.7-6.7-1.7l-4.5 10.1 11.8 2.8c2.2.6 4.5 1.1 6.7 1.7l-3.9 15.7 9 2.2 3.9-15.1c2.2.6 5.1 1.1 7.3 1.7l-3.9 15.1 9 2.2 3.9-15.7c15.7 2.8 27.5 1.7 32.6-12.4 3.9-11.2-.6-17.9-8.4-21.9 6.2-1.7 10.7-5.6 11.8-13.5zm-21.3 29.7c-2.8 11.2-21.9 5.1-28.1 3.9l5.1-20.2c6.2 1.7 26.4 4.5 23 16.3zm2.8-30.3c-2.8 10.1-18.5 5.1-23.6 3.9l4.5-17.9c5.1 1.1 21.9 3.9 19.1 14z" fill="white"/>
</svg>
